# xmcd
#
# Track frame offsets:
#	150
#	3200
#	23587
#	47232
#	65470
#	86222
#	98740
#	107315
#	131472
#	158475
#	162610
#	184137
#	204487
#	218550
#	244575
#
# Disc length: 3485 seconds
#
# Revision: 0
# Processed by: cddbd v1.4PL0 Copyright (c) Steve Scherf et al.
# Submitted via: dBpowerAMP V4.0
#
DISCID=b80d9b0f
DTITLE=Trond Granlund - Tida Er`e Ingen Som Kan Snu
DYEAR=1995
DGENRE=Country
TTITLE0=Granlunds Stev
TTITLE1=Manglerud, Manglerud
TTITLE2=De Tatovertes Bataljon
TTITLE3=Hu Kom Over Mo`n
TTITLE4=Tilbake Til Livet
TTITLE5=Ring Rundt Månen
TTITLE6=Når Unger Ser En Snekker Arbeide Får dem Løst Te Å Snekre Sjøl
TTITLE7=Vaterlands Bru
TTITLE8=Geronimo Ropte På Vinden
TTITLE9=Mafsan
TTITLE10=Nøkkelunger
TTITLE11=Bestefar I Bua
TTITLE12=Nattproletarenes Sang
TTITLE13=Mangas Colorados Var En Ørn Fra Sørvest
TTITLE14=Himmel På Jord
EXTD=
EXTT0=
EXTT1=
EXTT2=
EXTT3=
EXTT4=
EXTT5=
EXTT6=
EXTT7=
EXTT8=
EXTT9=
EXTT10=
EXTT11=
EXTT12=
EXTT13=
EXTT14=
PLAYORDER=
